<?xml version="1.0" standalone="no"?>
<!DOCTYPE svg PUBLIC "-//W3C//DTD SVG 20010904//EN"
 "http://www.w3.org/TR/2001/REC-SVG-20010904/DTD/svg10.dtd">
<svg version="1.0" xmlns="http://www.w3.org/2000/svg"
 width="132.000000pt" height="132.000000pt" viewBox="0 0 132.000000 132.000000"
 preserveAspectRatio="xMidYMid meet">
<metadata>
Created by potrace 1.11, written by Peter Selinger 2001-2013
</metadata>
<g transform="translate(0.000000,132.000000) scale(0.100000,-0.100000)"
fill="#000000" stroke="none">
<path d="M140 1159 c-57 -12 -57 -11 -58 -388 0 -223 3 -356 10 -374 6 -16 21
-30 36 -34 14 -3 113 -6 221 -7 l196 -1 5 -50 c8 -82 2 -105 -29 -105 -14 0
-33 -4 -41 -10 -13 -8 -13 -10 1 -15 26 -10 359 -1 357 10 -2 5 -15 10 -31 11
-15 1 -29 3 -31 5 -7 7 -10 135 -3 146 4 6 79 10 199 10 107 0 205 3 220 6 15
4 30 18 36 34 7 18 10 150 9 375 -2 314 -4 349 -19 368 -10 11 -30 20 -45 21
-147 4 -1009 3 -1033 -2z m1060 -39 c13 -20 13 -700 0 -720 -14 -23 -1066 -23
-1080 0 -11 18 -13 699 -2 716 4 6 13 13 20 15 7 2 247 4 533 4 449 0 521 -2
529 -15z m-460 -843 l0 -82 -72 2 c-40 1 -76 2 -80 2 -5 1 -8 36 -8 79 l0 79
80 0 80 1 0 -81z"/>
<path d="M733 969 c-12 -15 -163 -393 -163 -409 0 -6 6 -10 13 -10 7 0 23 30
36 68 13 37 32 85 41 107 51 115 91 226 88 241 -2 15 -5 15 -15 3z"/>
<path d="M455 902 c-6 -5 -50 -31 -100 -57 -116 -62 -136 -76 -132 -88 3 -10
220 -135 243 -139 7 -2 14 2 15 7 1 6 -46 37 -104 69 -59 33 -107 63 -107 66
0 3 48 33 107 66 97 54 120 73 96 81 -5 2 -13 -1 -18 -5z"/>
<path d="M836 901 c-8 -12 3 -19 117 -81 53 -30 97 -56 97 -60 0 -3 -48 -33
-107 -66 -58 -32 -104 -63 -102 -69 6 -15 15 -11 140 59 63 35 114 69 114 76
0 7 -34 32 -75 55 -41 22 -97 53 -123 68 -54 30 -54 30 -61 18z"/>
</g>
</svg>
